<svg xmlns="http://www.w3.org/2000/svg" viewBox="0 0 64 64" role="img" aria-label="Stilo Drywall">
  <defs>
    <linearGradient id="sd-orange" x1="0" y1="0" x2="1" y2="1">
      <stop offset="0%" stop-color="#d66a2b"/>
      <stop offset="100%" stop-color="#b44f12"/>
    </linearGradient>
    <linearGradient id="sd-teal" x1="0" y1="0" x2="1" y2="1">
      <stop offset="0%" stop-color="#0f5a6a"/>
      <stop offset="100%" stop-color="#0b3f4a"/>
    </linearGradient>
  </defs>
  <path d="M36 10h8c6.63 0 12 5.37 12 12v20c0 6.63-5.37 12-12 12h-8V10z" fill="url(#sd-orange)"/>
  <path d="M41 18h3c2.76 0 5 2.24 5 5v18c0 2.76-2.24 5-5 5h-3V18z" fill="#f6f1e6"/>
  <path d="M15 16h20l-7.3 7H21l11 7-11 7h6.7l7.3 7H15l10-14z" fill="url(#sd-teal)"/>
  <path d="M38 18h2.4v28H38z" fill="#8c97a0"/>
  <path d="M43 18h2.4v28H43z" fill="#8c97a0"/>
  <path d="M36 22h10" stroke="#8c97a0" stroke-width="1.3"/>
  <circle cx="39.2" cy="27" r="1" fill="#6d7378"/>
  <circle cx="44.2" cy="37" r="1" fill="#6d7378"/>
  <circle cx="39.2" cy="44" r="1" fill="#6d7378"/>
  <circle cx="50" cy="15" r="2.8" fill="#f6f1e6"/>
</svg>
